<svg xmlns="http://www.w3.org/2000/svg" fill="none" viewBox="0 0 160 80" height="80" width="160">
<path fill="#404040" d="M133.731 35.3582L133.774 35.0614L133.859 34.8056L133.986 34.5941L134.114 34.3809L134.325 34.2103L134.582 34.0824L134.836 33.9988H135.09H135.387L135.642 34.0824L135.898 34.2103L136.067 34.3809L136.236 34.5941L136.364 34.8056L136.449 35.0614L136.492 35.3582L136.449 35.6567L136.364 35.9126L136.236 36.1667L136.067 36.3373L135.898 36.5075L135.642 36.6351L135.387 36.72L135.09 36.7627L134.836 36.72L134.582 36.6351L134.325 36.5075L134.114 36.3373L133.986 36.1667L133.859 35.9126L133.774 35.6567L133.731 35.3582ZM126.216 50.3304L126.684 50.7132L127.15 51.0534L127.618 51.3935L128.126 51.7338L128.68 52.0316L129.188 52.2868L129.74 52.542L130.334 52.7547L130.887 52.9248L131.481 53.0949L132.075 53.265L132.669 53.3926L133.265 53.4777L133.859 53.5202L134.496 53.5627H135.09H135.727L136.364 53.5202L136.958 53.4777L137.552 53.3926L138.148 53.265L138.742 53.0949L139.336 52.9248L139.888 52.7547L140.483 52.542L141.035 52.2868L141.544 52.0316L142.097 51.7338L142.605 51.3935L143.073 51.0534L143.539 50.7132L144.007 50.3304L142.308 48.5014L141.672 49.0544L140.992 49.5223L140.27 49.9475L139.548 50.3304L138.785 50.628L138.02 50.8832L137.171 51.0534L136.321 51.181V41.4411H138.742V39.6123H136.321V38.1663L136.746 37.996L137.129 37.7409L137.468 37.4431L137.765 37.1029L137.977 36.7627L138.148 36.3373L138.274 35.8699V35.4009V35.0614L138.232 34.7629L138.148 34.4235L138.062 34.1677L137.892 33.8709L137.765 33.615L137.552 33.3609L137.383 33.1477L137.129 32.9345L136.874 32.7639L136.618 32.6377L136.364 32.5097L136.067 32.3818L135.77 32.2965L135.43 32.2539H135.09H134.793L134.453 32.2965L134.156 32.3818L133.859 32.5097L133.605 32.6377L133.349 32.7639L133.094 32.9345L132.84 33.1477L132.669 33.3609L132.458 33.615L132.33 33.8709L132.161 34.1677L132.075 34.4235L131.99 34.7629L131.949 35.0614V35.4009V35.8699L132.075 36.3373L132.246 36.7627L132.458 37.1029L132.755 37.4431L133.094 37.7409L133.477 37.996L133.902 38.1663V39.6123H131.481V41.4411H133.902V51.181L133.052 51.0534L132.203 50.8832L131.438 50.628L130.674 50.3304L129.91 49.9475L129.231 49.5223L128.552 49.0544L127.915 48.5014L126.216 50.3304ZM121.163 39.6123L121.205 38.9318L121.248 38.2087L121.333 37.5282L121.462 36.8476L121.631 36.2093L121.801 35.5288L122.013 34.8909L122.267 34.2529L122.564 33.6577L122.861 33.0624L123.201 32.5097L123.584 31.9145L123.966 31.4028L124.391 30.8501L124.814 30.3828L125.282 29.8728L125.748 29.4464L126.259 29.0217L126.768 28.5969L127.321 28.2132L127.915 27.8311L128.466 27.5326L129.06 27.1932L129.697 26.9373L130.334 26.6832L130.972 26.47L131.65 26.2994L132.33 26.1288L133.009 26.0026L133.689 25.9173L134.411 25.8747L135.09 25.832L135.812 25.8747L136.535 25.9173L137.212 26.0026L137.892 26.1288L138.571 26.2994L139.251 26.47L139.888 26.6832L140.524 26.9373L141.12 27.1932L141.757 27.5326L142.308 27.8311L142.903 28.2132L143.454 28.5969L143.964 29.0217L144.473 29.4464L144.941 29.8728L145.407 30.3828L145.832 30.8501L146.257 31.4028L146.64 31.9145L147.022 32.5097L147.36 33.0624L147.659 33.6577L147.956 34.2529L148.21 34.8909L148.422 35.5288L148.593 36.2093L148.762 36.8476L148.89 37.5282L148.975 38.2087L149.016 38.9318L149.059 39.6123L149.016 40.2927L148.975 40.8882L148.89 41.5263L148.804 42.1642L148.676 42.7596L148.507 43.3551L148.338 43.9505L148.125 44.546L147.913 45.0989L147.659 45.6518L147.36 46.2047L147.063 46.7151L146.766 47.2256L146.426 47.7359L146.046 48.2462L145.663 48.7141L143.879 46.8853L144.43 46.1196L144.984 45.269L145.407 44.4184L145.789 43.4827L146.046 42.5469L146.257 41.6112L146.384 40.633L146.426 39.6123V39.0593L146.384 38.4639L146.3 37.9109L146.215 37.3581L146.086 36.8051L145.917 36.252L145.747 35.742L145.535 35.232L145.323 34.7203L145.067 34.2103L144.77 33.7429L144.473 33.2756L144.176 32.8492L143.836 32.3818L143.497 31.9998L143.114 31.5733L142.691 31.1913L142.308 30.8501L141.883 30.5107L141.417 30.1696L140.949 29.8728L140.483 29.6169L140.016 29.3628L139.505 29.1069L138.996 28.9364L138.445 28.7249L137.935 28.5969L137.383 28.469L136.832 28.3411L136.278 28.2984L135.684 28.2558L135.09 28.2131L134.539 28.2558L133.943 28.2984L133.392 28.3411L132.84 28.469L132.289 28.5969L131.778 28.7249L131.227 28.9364L130.716 29.1069L130.208 29.3628L129.74 29.6169L129.274 29.8728L128.806 30.1696L128.34 30.5107L127.915 30.8501L127.532 31.1913L127.107 31.5733L126.727 31.9998L126.387 32.3818L126.047 32.8492L125.748 33.2756L125.451 33.7429L125.154 34.2103L124.9 34.7203L124.688 35.232L124.475 35.742L124.306 36.252L124.135 36.8051L124.009 37.3581L123.923 37.9109L123.838 38.4639L123.795 39.0593V39.6123L123.838 40.633L123.966 41.6112L124.178 42.5469L124.434 43.4827L124.814 44.4184L125.24 45.269L125.791 46.1196L126.344 46.8853L124.56 48.7141L124.178 48.2462L123.795 47.7359L123.456 47.2256L123.158 46.7151L122.861 46.2047L122.564 45.6518L122.31 45.0989L122.098 44.546L121.885 43.9505L121.716 43.3551L121.545 42.7596L121.419 42.1642L121.333 41.5263L121.248 40.8882L121.205 40.2927L121.163 39.6123ZM109.275 43.993V35.4009H111.568V42.0366H115.474V43.993H109.275ZM101.166 43.993H107.577V42.0366H103.331V40.5481H106.812V38.7617H103.331V37.273H107.365V35.4009H101.166V43.993ZM91.358 39.6973L91.399 39.1869L91.4417 38.7191L91.5271 38.2938L91.6551 37.8684L91.8241 37.4431L92.0358 37.0603L92.2492 36.72L92.5036 36.4225L92.8007 36.1241L93.0977 35.8699L93.4801 35.6567L93.8199 35.4861L94.245 35.3173L94.6684 35.232L95.0935 35.1467H95.6039L96.2817 35.1894L96.6214 35.232L96.9612 35.3173L97.2582 35.4435L97.557 35.5714L97.8114 35.6994L98.0657 35.8699L98.3201 36.0814L98.5335 36.2946L98.7452 36.55L98.9142 36.8052L99.0423 37.103L99.1703 37.4006L99.254 37.7409L99.3393 38.0812H97.0465L96.9612 37.7834L96.8348 37.5708L96.7068 37.4006L96.5378 37.2305L96.3244 37.1454L96.1127 37.0603L95.8583 37.0179H95.6449L95.3905 37.0603H95.1788L94.9654 37.1454L94.7537 37.2305L94.5847 37.3581L94.414 37.4857L94.1596 37.7834L93.9479 38.2087L93.7772 38.634L93.6918 39.1445V39.6973V40.2503L93.8199 40.7606L93.9479 41.2285L94.2023 41.6112L94.4993 41.9515L94.6684 42.0791L94.8391 42.2067L95.0508 42.2918L95.2642 42.3342L95.5186 42.3769L95.7729 42.4193L96.198 42.3769L96.5805 42.2918L96.9202 42.1642L97.2173 41.9941V40.8882H95.6876V39.1869H99.382V43.0574L98.9569 43.3551L98.4908 43.6103L98.0657 43.823L97.598 43.993L97.1319 44.1206L96.7068 44.2483L96.2817 44.2908H95.901H95.3478L94.8818 44.2057L94.414 44.1206L93.9479 43.993L93.5655 43.8229L93.1831 43.6102L92.8433 43.3551L92.5463 43.0999L92.2919 42.7596L92.0358 42.4193L91.8241 42.0366L91.6551 41.6538L91.5271 41.186L91.4417 40.7181L91.399 40.2078L91.358 39.6973ZM85.3708 40.9308L86.4737 37.6557L87.5782 40.9308H85.3708ZM81.9734 43.993H84.3089L84.734 42.7171H88.1723L88.6401 43.993H90.9756L87.7063 35.4009H85.2428L81.9734 43.993ZM73.3536 43.993H75.4774V38.8466L78.4924 43.993H80.9115V35.4009H78.7894V40.4629L75.6891 35.4009H73.3536V43.993ZM63.6737 40.5481V39.4421H67.0711V35.9552H68.3873V39.4421H71.8257V40.5481H68.3873V43.993H67.0711V40.5481H63.6737ZM56.2439 43.993H62.6545V42.0366H58.4086V40.5481H61.8896V38.7617H58.4086V37.273H62.4428V35.4009H56.2439V43.993ZM46.6476 43.993H48.8123V38.8466L51.7846 43.993H54.2054V35.4009H52.0817V40.4629L48.983 35.4009H46.6476V43.993ZM36.9676 43.993H39.2604V40.6756H42.359V43.993H44.6091V35.4009H42.359V38.6339H39.2604V35.4009H36.9676V43.993ZM28.8566 43.993H35.2689V42.0366H31.0231V40.5481H34.5041V38.7617H31.0231V37.273H35.0555V35.4009H28.8566V43.993ZM19.4314 40.4629V40.9733L19.4737 41.4411L19.6011 41.8665L19.7284 42.2493L19.8983 42.5896L20.0681 42.8872L20.2805 43.185L20.5352 43.4402L20.79 43.6529L21.0872 43.8229L21.3844 43.9505L21.7241 44.0781L22.0637 44.2057L22.446 44.2483L22.7855 44.2908H23.1676H23.5499L23.8894 44.2483L24.2717 44.2057L24.6112 44.0781L24.9085 43.9505L25.2482 43.8229L25.5454 43.6529L25.8001 43.4402L26.0549 43.185L26.2672 42.8872L26.4371 42.5896L26.6068 42.2493L26.7343 41.8665L26.8192 41.4411L26.904 40.9733V40.4629V35.4009H24.6112V40.8032L24.5689 41.1433L24.4839 41.4836L24.3991 41.7388L24.2292 41.9515L24.017 42.1217L23.8046 42.2493L23.5074 42.3342H23.1676H22.8281L22.5308 42.2493L22.2761 42.1217L22.1062 41.9515L21.9364 41.7388L21.809 41.4836L21.7665 41.1433L21.7242 40.8032V35.4009H19.4314L19.4314 40.4629ZM10.9395 43.993H13.1898V41.5687L13.9541 40.5905L15.9497 43.993H18.6245L15.4826 38.9318L18.2425 35.4009H15.6099L13.1898 38.4639V35.4009H10.9395V43.993Z"></path>
</svg>
