<svg xmlns="http://www.w3.org/2000/svg" fill="none" viewBox="0 0 160 80" height="80" width="160">
<path fill="#404040" d="M36.8207 34.8232C36.8207 32.0209 34.5555 29.7323 31.7765 29.7323C28.9741 29.7323 26.7323 31.9975 26.7323 34.8232C26.7323 37.6255 28.9975 39.9141 31.7765 39.9141C34.5555 39.8907 36.8207 37.6255 36.8207 34.8232ZM47.8899 35.01C47.8899 33.9124 47.0025 33.0017 45.9049 33.0017C44.8073 33.0017 43.9199 33.8891 43.9199 35.01C43.9199 36.1076 44.8073 37.0183 45.9049 37.0183C47.0025 37.0183 47.8899 36.1076 47.8899 35.01ZM52.7006 39.6572C53.2143 39.5638 53.8449 37.7423 52.8641 37.8357C45.9983 38.3261 45.8115 38.3028 38.9691 37.8357C37.9883 37.7423 38.6188 39.5638 39.1326 39.6572C42.1918 40.2644 42.9858 40.4045 42.9858 41.2686C42.8924 42.6931 42.8457 43.9775 40.9308 49.5354C40.4871 50.5863 42.4487 50.2594 42.6822 49.7223C43.8966 47.3403 44.6672 45.4487 45.4846 44.5146C45.6947 44.2577 46.1384 44.2577 46.3253 44.5146C47.1426 45.4487 47.9133 47.3403 49.151 49.7223C49.3845 50.2594 51.3461 50.563 50.9024 49.5354C48.9875 43.9541 48.9408 42.6697 48.8474 41.2686C48.8474 40.4045 49.618 40.2644 52.7006 39.6572ZM58.0717 37.0183V48.2043C58.0717 49.9558 56.8574 51.6839 54.6622 51.6839H34.9525C32.6405 51.6839 31.7531 49.6522 31.7531 48.2043V44.1643C31.7531 43.417 31.216 42.5997 30.2819 42.4829C26.7089 41.7823 24 38.6063 24 34.8232C24 30.5029 27.4796 27 31.7765 27C34.2052 27 36.4003 28.1209 37.8249 29.8957C38.5254 30.7832 39.2961 30.7364 39.95 30.3862C41.7248 29.382 43.1493 28.5646 43.3595 28.4479C44.2936 27.9108 45.181 27.7239 46.3486 28.4012C46.8857 28.7281 55.4796 33.7023 56.9041 34.543C58.0484 35.2202 58.0717 35.9441 58.0717 37.0183ZM135.696 38.2327L132.404 39.2135C132.1 37.8357 131.119 36.8082 129.321 36.8082C127.827 36.8082 126.752 37.7189 126.752 38.7465C126.752 39.5872 127.289 40.3344 128.574 40.568L131.026 41.0117C134.272 41.6188 136 43.6972 136 46.1726C136 48.8816 133.711 51.6372 129.555 51.6372C125.351 51.6372 123.063 49.5121 122.525 46.196L125.912 45.402C126.192 47.3169 127.756 48.3678 129.671 48.3678C131.353 48.3678 132.31 47.4804 132.31 46.3828C132.31 45.5188 131.54 44.7948 130.325 44.5379L127.85 44.0475C125.024 43.4871 123.179 41.6656 123.179 39.0033C123.179 35.8741 126.005 33.5388 129.391 33.5388C133.408 33.5388 135.369 35.9675 135.696 38.2327ZM117.014 42.5997C117.014 39.5638 114.632 37.0884 111.62 37.0884C108.584 37.0884 106.202 39.5638 106.202 42.5997C106.202 45.6355 108.584 48.1343 111.62 48.1343C114.632 48.1343 117.014 45.6122 117.014 42.5997ZM111.643 33.5388C116.711 33.5388 120.727 37.4854 120.727 42.5296C120.727 47.6205 116.617 51.6372 111.573 51.6372C106.505 51.6372 102.489 47.6906 102.489 42.623C102.489 37.5555 106.599 33.5388 111.643 33.5388ZM96.2302 39.0267C96.2302 37.5788 94.8991 37.1585 93.6847 37.1585H90.4387V40.9416H93.4279C94.7356 40.9416 96.2302 40.6147 96.2302 39.0267ZM94.2452 48.0175C95.553 48.0175 97.0008 47.6439 97.0008 46.0792C97.0008 44.4679 95.4829 44.1176 94.1284 44.1176H90.4387V48.0175H94.2452ZM97.3278 42.2494C99.4062 43.0434 100.55 44.211 100.55 46.5229C100.55 50.0959 97.3978 51.3803 94.2919 51.3803H86.9124V33.819H94.1985C97.0242 33.819 99.8032 35.3136 99.8032 38.4662C99.8032 40.2177 98.8691 41.432 97.3511 42.226V42.2494H97.3278ZM80.1868 42.5997C80.1868 39.5638 77.8048 37.0884 74.7923 37.0884C71.7565 37.0884 69.3745 39.5638 69.3745 42.5997C69.3745 45.6355 71.7565 48.1343 74.7923 48.1343C77.8048 48.1343 80.1868 45.6122 80.1868 42.5997ZM74.8157 33.5388C79.8832 33.5388 83.8999 37.4854 83.8999 42.5296C83.8999 47.6205 79.7898 51.6372 74.7456 51.6372C69.6781 51.6372 65.6614 47.6906 65.6614 42.623C65.638 37.5555 69.7715 33.5388 74.8157 33.5388Z"></path>
</svg>
