<svg xmlns="http://www.w3.org/2000/svg" fill="none" viewBox="0 0 160 80" height="80" width="160">
<path fill="#404040" d="M56.2727 61.3342C61.622 61.3342 65.656 57.1623 65.656 51.6311C65.656 46.0974 61.622 41.9242 56.2727 41.9242C50.9208 41.9242 46.8868 46.0974 46.8868 51.6311C46.8868 57.1648 50.9208 61.3342 56.2727 61.3342ZM56.2727 37.2307C64.3945 37.2307 70.7571 43.5556 70.7571 51.6311C70.7571 59.6439 64.3945 65.9199 56.2727 65.9199C48.1483 65.9199 41.7832 59.6439 41.7832 51.6311C41.7832 43.5556 48.1483 37.2307 56.2727 37.2307Z"></path>
<path fill="#404040" d="M114.813 65.4258H109.709V37.3898C109.709 36.265 111.093 35.0299 113.483 35.0299H114.813V65.4258Z"></path>
<path fill="#404040" d="M128.392 61.7659C132.801 61.7659 135.23 58.6072 135.23 54.429C135.23 50.2509 132.535 47.3843 128.392 47.3843C124.145 47.3843 121.557 50.2534 121.557 54.4265C121.557 58.5997 124.215 61.7659 128.392 61.7659ZM135.4 46.3799L135.402 46.109C135.402 44.6733 137.247 43.7253 139.074 43.7253H140.333V65.425H135.402V62.8431C135.402 62.8431 132.563 65.998 127.775 65.998C120.305 65.998 116.771 59.8725 116.771 54.4278C116.771 48.938 120.309 43.1522 127.774 43.1522C132.563 43.1522 135.4 46.3799 135.4 46.3799"></path>
<path fill="#404040" d="M85.6655 43.444V47.5646C85.105 47.5395 84.4479 47.5182 83.8385 47.5182C80.049 47.5182 78.1016 48.0875 78.1016 48.0875V65.4121H72.998V47.4529C72.998 45.6723 76.4301 43.4114 84.1344 43.4114C84.1344 43.4114 85.1702 43.4252 85.6655 43.444"></path>
<path fill="#404040" d="M87.5273 65.4258V37.3898C87.5273 36.265 88.9117 35.0299 91.3018 35.0299H92.6309L92.6297 51.1884L100.472 43.7449L107.03 43.7374L97.075 53.0254L108.794 65.4258H102.343L93.6717 56.2543L92.6297 57.24V65.4258H87.5273Z"></path>
<path fill="#404040" d="M37.3209 14.2248L33.0436 27.5292H20.3222C20.0112 27.5292 19.8796 27.928 20.1354 28.1123L31.6705 36.4913C31.6793 36.4988 31.6906 36.49 31.6843 36.4813L27.876 30.3055H35.3296L37.6281 23.0476L39.9554 30.392C41.2432 29.3838 43.78 27.9957 45.0377 27.5468C45.0465 27.5431 45.044 27.5292 45.0352 27.5292H42.2063L37.934 14.2248C37.8864 14.0743 37.7572 14.0003 37.6281 14.0003C37.4977 14.0003 37.3685 14.0743 37.3209 14.2248"></path>
<path fill="#404040" d="M50.1774 27.527C44.8632 27.527 31.6402 35.0821 31.6289 51.7297C31.6289 51.7422 31.6389 51.751 31.6502 51.751C31.6628 51.751 31.6715 51.7422 31.6728 51.7297C32.8841 43.4648 37.1839 38.4854 41.3922 34.9053C46.4657 30.5892 55.6271 28.4249 56.5137 28.1515C56.6554 28.1089 56.7319 27.9684 56.7306 27.8481C56.7268 27.6713 56.5927 27.527 56.4096 27.527H50.1774Z"></path>
</svg>
