<svg xmlns="http://www.w3.org/2000/svg" fill="none" viewBox="0 0 160 80" height="80" width="160">
<path fill="#404040" d="M120.132 44.7634C119.429 44.7634 118.917 44.3278 118.917 43.5258V34.8961C118.917 34.0947 119.429 33.6588 120.132 33.6588C120.835 33.6588 121.348 34.0947 121.348 34.8961V42.559H125.91C126.553 42.559 127.018 42.9954 127.018 43.6674C127.018 44.3153 126.553 44.7634 125.91 44.7634H120.132ZM108.792 44.7634C108.09 44.7634 107.577 44.3278 107.577 43.5258V34.8961C107.577 34.0947 108.09 33.6588 108.792 33.6588C109.495 33.6588 110.006 34.0947 110.006 34.8961V42.559H114.557C115.201 42.559 115.665 42.9954 115.665 43.6674C115.665 44.3153 115.201 44.7634 114.557 44.7634H108.792ZM35.3529 34.9787C35.3529 34.1773 35.8406 33.7409 36.5437 33.7409H40.4273C41.845 33.7409 42.9411 34.1416 43.6795 34.8609C44.2868 35.4742 44.6321 36.3462 44.6321 37.3837V37.407C44.6321 39.1403 43.7506 40.213 42.4044 40.7675L44.0844 42.7832C44.3227 43.0783 44.501 43.3136 44.501 43.6913C44.501 44.363 43.8817 44.8582 43.2623 44.8582C42.7141 44.8582 42.4164 44.5869 42.1308 44.2214L39.7486 41.238H37.7827V43.62C37.7827 44.4217 37.2706 44.8582 36.5678 44.8582C35.8647 44.8582 35.3529 44.4217 35.3529 43.62V34.9787ZM83.7999 33.7409C85.063 33.7409 86.0754 34.0947 86.7189 34.7315C87.2195 35.2264 87.4684 35.8632 87.4684 36.594C87.4684 37.8667 86.8023 38.5625 86.0035 38.999C87.2901 39.482 88.0881 40.2244 88.0881 41.7094C88.0881 43.7614 86.4333 44.7634 83.9189 44.7634H79.8449C79.1426 44.7634 78.63 44.3278 78.63 43.5258V34.9787C78.63 34.1773 79.1426 33.7409 79.8449 33.7409H83.7999ZM73.8526 43.62C73.8526 44.4217 73.3413 44.8582 72.6379 44.8582C71.9354 44.8582 71.423 44.4217 71.423 43.62V38.1502L69.2788 41.4267C69.0285 41.8044 68.7073 42.0408 68.2663 42.0408C67.8135 42.0408 67.4921 41.8044 67.2415 41.4267L65.1337 38.1973V43.62C65.1337 44.4217 64.621 44.8582 63.9182 44.8582C63.2154 44.8582 62.7033 44.4217 62.7033 43.62V34.8022C62.7033 34.036 63.3823 33.6702 64.0254 33.6702C64.633 33.6702 65.0743 33.8944 65.372 34.3776L68.2904 39.0816L71.2086 34.3776C71.5065 33.8944 71.9234 33.6702 72.531 33.6702C73.1739 33.6702 73.8526 34.036 73.8526 34.8022V43.62ZM131.235 51C134.57 51 136 49.5848 136 46.2844V32.7153C136 29.4144 134.57 28 131.235 28H107.577L97.3443 40.1894L96.9627 40.0121L97.9155 35.8394C97.7615 35.8036 97.6061 35.7923 97.439 35.7923C95.4622 35.7923 94.0927 37.3363 94.0927 39.2229V39.2581C94.0927 41.1441 95.4983 42.7117 97.463 42.7117C99.4404 42.7117 100.799 41.179 100.799 39.2933V39.2581C100.799 38.9045 100.751 38.5625 100.655 38.2566L102.74 36.6294C103.133 37.407 103.36 38.2915 103.36 39.2229V39.2581C103.36 42.3825 100.87 44.9521 97.439 44.9521C93.9966 44.9521 91.5433 42.4174 91.5433 39.2933V39.2581C91.5433 36.1226 94.0319 33.5641 97.463 33.5641C97.7965 33.5641 98.1191 33.5879 98.4276 33.6231L99.7386 28H28.765C25.4297 28 24 29.4144 24 32.7153V46.2844C24 49.5848 25.4297 51 28.765 51H131.235ZM55.8654 42.2874H50.9699L50.1957 44.1036C49.9927 44.5869 49.6116 44.8582 49.1115 44.8582C48.4681 44.8582 47.9322 44.3868 47.9322 43.75C47.9322 43.5735 47.9915 43.372 48.0747 43.1958L51.9583 34.5306C52.2321 33.9296 52.7087 33.5754 53.447 33.5754C54.186 33.5754 54.6746 33.9296 54.9484 34.5306L58.8197 43.1958C58.9031 43.372 58.9625 43.5735 58.9625 43.75C58.9625 44.3868 58.4151 44.8582 57.7599 44.8582C57.2472 44.8582 56.8546 44.5869 56.6516 44.1036L55.8654 42.2874ZM51.8751 40.154H54.9602L53.4115 36.5114L51.8751 40.154ZM85.0271 37.0418C85.0271 36.2642 84.4671 35.8746 83.4308 35.8746H81.0125V38.1973H83.2754C84.3599 38.1973 85.0271 37.8554 85.0271 37.0418ZM40.2243 35.9339H37.7827V39.0935H40.2725C41.4639 39.0935 42.1426 38.4683 42.1426 37.537V37.5015C42.1426 36.4646 41.416 35.9339 40.2243 35.9339ZM83.8354 40.213H81.0125V42.6302H83.9189C85.0036 42.6302 85.6582 42.2525 85.6582 41.4395C85.6582 40.6611 85.0982 40.213 83.8354 40.213Z"></path>
</svg>
