<svg xmlns="http://www.w3.org/2000/svg" fill="none" viewBox="0 0 160 80" height="80" width="160">
<path fill="#404040" d="M111.541 50.583C111.539 50.583 111.25 50.8344 111.25 50.8344C110.837 51.1946 110.411 51.5802 109.898 51.3873C109.756 51.337 109.656 51.1529 109.632 51.0099C109.609 49.979 110.085 49.0237 110.547 48.0936L110.665 47.8503C111.994 45.688 113.539 43.1402 115.807 41.3719C116.189 41.1031 116.604 40.8773 117.042 41.0534C117.142 41.1454 117.26 41.3048 117.26 41.4639C117.26 41.5144 117.214 41.6484 117.187 41.6901C116.554 42.6879 115.95 43.7355 115.364 44.7411C114.217 46.7276 113.028 48.7806 111.541 50.583ZM99.2504 45.4871C99.1636 45.5461 97.6313 45.043 97.3352 43.6601C97.084 42.4695 97.9251 41.5392 98.739 41.0703C99.0883 40.8019 99.6145 40.71 100 40.8435C100.359 41.0785 100.456 41.4979 100.456 41.9498C100.456 42.227 100.418 42.5117 100.385 42.7714C100.385 42.7714 100.378 42.8219 100.377 42.8303C100.122 43.7603 99.7314 44.674 99.2504 45.4871ZM93.397 51.1112C93.2407 50.8849 93.1889 50.6374 93.1837 50.3699C93.1537 48.7265 94.9679 45.7834 96.2484 44.1801H96.2512C96.7879 45.3253 98.003 46.0615 98.7366 46.3717C97.8255 48.3499 94.7004 52.5863 93.397 51.1112ZM115.513 51.403C115.209 51.6041 114.783 51.4495 114.943 50.9886C115.339 49.8152 116.917 47.4239 116.917 47.4239L121.311 39.8278H118.301C118.158 40.0568 117.852 40.5828 117.852 40.5828C117.713 40.3567 117.297 39.854 117.125 39.7454C116.39 39.2924 115.311 39.5066 114.567 39.9172C111.331 41.7614 108.97 45.4052 107.108 48.2463C107.108 48.2463 105.148 51.4049 104.06 51.6398C103.21 51.7069 103.298 50.5917 103.335 50.3319C103.663 48.4541 104.426 46.669 105.194 45.0514C106.757 43.9954 108.541 42.6124 110.162 41.0955C113.679 37.818 116.645 34.1049 117.078 33.2753C117.078 33.2753 116.609 33.3676 116.055 33.3842C113.349 37.0636 107.811 42.4115 106.132 43.2072C106.876 41.4636 111.681 33.1409 115.771 29.16L116.414 28.5564C117.409 27.6093 118.44 26.637 119.244 26.4777C119.329 26.4694 119.438 26.4777 119.532 26.6708C119.568 27.4083 119.286 27.9531 118.963 28.5733L118.51 29.4787C118.51 29.4787 119.152 29.3613 119.573 29.2268C120.062 28.3304 120.603 27.3243 120.404 26.126C120.337 25.7404 120.051 25.4471 119.676 25.38C118.457 25.1537 117.127 26.0335 116.057 26.7462L116.014 26.7711C110.515 30.9703 105.871 37.022 101.811 45.2861C101.517 45.5037 100.38 45.7638 100.187 45.6379C100.588 44.8335 101.093 43.752 101.345 42.5786C101.389 42.2433 101.43 41.8998 101.43 41.5646C101.43 40.8432 101.252 40.1646 100.589 39.6954C99.8117 39.3181 98.8509 39.4943 98.2031 39.7791C95.3011 40.9525 93.1322 43.8527 91.5671 46.241C90.7254 47.7585 89.886 49.3837 89.6536 51.2448C89.49 52.703 89.8232 53.6417 90.6738 54.1112C91.5486 54.5468 92.6496 54.0941 93.0821 53.8764C96.0221 52.3677 98.0764 49.3422 99.6955 46.5761C99.7599 46.5679 100.644 46.5429 101.313 46.375C101.322 46.375 101.325 46.375 101.34 46.3838C101.302 46.509 100.956 47.5151 100.956 47.5151C99.9301 50.4484 99.4555 52.4433 100.425 53.6252C101.81 55.2932 104.103 53.5668 105.969 51.2866C105.569 54.0189 107.021 54.4465 108.129 54.2372C109.401 53.9021 110.819 52.5775 111.477 51.8988C111.265 52.6949 111.323 54.1199 112.48 54.2623C113.273 54.4052 113.867 53.9846 114.554 53.6241C117.018 52.3165 119.967 47.9593 120.733 46.6995H119.729C118.641 48.3029 117.255 50.405 115.513 51.403ZM77.5545 35.1323H80.3745L81.966 32.6127H79.1455L77.5545 35.1323ZM122.6 28.439C120.45 29.6293 118.221 30.4002 115.523 30.1321C114.775 30.9537 114.047 31.8001 113.376 32.6717C117.163 33.6105 121.178 31.5235 123.417 29.5373C125.785 27.5341 127 25.0114 127 25.0114C127 25.0114 125.225 26.9892 122.6 28.439ZM98.8885 27.8022C98.4402 32.8143 94.4429 35.7566 93.4539 35.9907C92.8545 36.1079 91.8318 35.8483 92.7447 33.7448C94.0893 30.9115 96.3848 28.5064 98.8477 27.2741C98.9077 27.4837 98.9062 27.6176 98.8885 27.8022ZM91.0996 40.4329C90.8133 39.8296 90.1334 39.444 89.4089 39.4858C87.0562 39.6955 84.7549 41.5812 83.5465 44.2885C82.9125 45.68 82.5665 46.8281 82.3396 48.6552C83.0711 47.834 84.5634 46.4847 86.2568 45.7471C86.2568 45.7471 86.4872 43.9954 87.6622 42.4364C88.1069 41.7908 88.9967 40.7516 89.9958 41.0281C90.8687 41.3133 90.5619 43.6685 89.4017 45.9476C88.5433 47.6242 87.2296 49.3009 85.9004 50.4572C84.7253 51.4296 82.9866 52.6029 81.4655 51.6978C80.5073 51.1448 80.0187 49.9879 80.1219 48.496C80.5797 44.2636 82.5565 40.6593 85.3851 36.5525C88.3019 32.7389 91.5172 28.8248 95.8488 26.7373C96.7323 26.3015 97.5504 26.2009 98.2577 26.4692C98.2577 26.4692 94.1916 28.6484 92.2533 32.6801C91.7603 33.7028 91.0746 35.0853 91.7651 36.3091C92.1259 36.946 92.7667 36.9964 93.2825 36.9628C95.6583 36.4263 97.1932 34.264 98.4474 32.2861C99.1745 30.7858 99.8207 29.2939 99.8207 27.6341C99.8207 27.433 99.81 27.1649 99.7925 26.9636C100.928 26.3771 103.255 27.4162 103.255 27.4162C105.074 28.0031 108.947 30.8949 110.253 31.4478C110.89 30.7271 111.937 29.6376 112.527 29.0927L111.673 28.5814C110.307 27.7683 108.862 26.9972 107.441 26.2345C104.212 24.5166 101.583 25.1199 100.246 25.5893C99.7201 25.7736 99.2396 25.9329 99.2396 25.9329C98.247 24.8769 96.619 24.9772 95.4194 25.2624C91.1055 26.4692 87.1003 29.411 82.8064 34.5155C79.6494 38.5135 77.6908 41.9669 76.6474 45.3779C75.8429 47.6743 75.5984 51.0519 77.5621 53.0552C79.2316 54.7561 81.4455 54.3877 83.0089 53.776C86.3962 52.15 89.4405 48.6462 90.9577 44.615C91.3237 43.4166 91.7299 41.7238 91.0996 40.4329ZM53.5533 36.5442C53.5476 36.5609 52.978 37.8348 52.978 37.8348C52.8956 37.9018 52.7654 37.8683 52.6162 37.8348L52.3605 37.7926C51.5577 37.5497 50.952 37.03 50.7653 36.4098C50.5078 35.2028 51.5656 34.2558 52.0317 33.9123C52.479 33.6103 53.1742 33.4511 53.578 33.7613C53.827 34.0464 53.9213 34.4151 53.9213 34.8176C53.9214 35.3623 53.7489 35.9741 53.5533 36.5442ZM52.3296 38.9662C52.3296 38.9662 52.3038 39.0419 52.291 39.0666C52.2877 39.0666 50.9961 41.1198 50.9961 41.1198C50.2166 42.1341 49.2434 43.4085 48.0267 44.02C47.6661 44.1374 47.1676 44.213 46.9137 43.9031C46.3751 43.2744 46.6527 42.4027 46.8782 41.6987L46.9579 41.4472C47.6044 39.7376 48.6302 38.2286 49.6286 36.8287C49.6411 36.8204 49.669 36.8121 49.6791 36.8121C49.6815 36.8205 49.6855 36.8205 49.6872 36.8373C50.3137 38.0105 51.4885 38.5551 52.3671 38.8069C52.3724 38.8069 52.378 38.8152 52.378 38.8321C52.3782 38.857 52.3638 38.891 52.3296 38.9662ZM68.4865 37.6168C69.0642 36.8375 70.7458 34.7504 71.1558 34.3985C72.5345 33.2162 73.0856 33.7364 73.1333 34.1049C71.8465 36.3511 70.3278 38.9241 68.9 41.2375C68.9028 41.2293 68.4531 41.8996 68.4531 41.8996C67.8225 42.8381 67.1875 43.6427 66.1517 44.2043C66.004 44.2464 65.7606 44.2633 65.5985 44.1455C65.4035 44.0198 65.3265 43.8102 65.3485 43.5921C65.4105 42.8715 66.1634 40.6678 68.4865 37.6168ZM54.1678 32.521C52.3853 31.3811 48.8027 33.5603 45.9333 37.298C43.3093 40.6509 42.1762 44.5479 43.4093 46.35C45.2436 48.4705 48.6489 45.3862 50.097 43.7353L50.2838 43.5423C51.2686 42.5114 52.0294 41.2708 52.7658 40.0806C52.7658 40.0806 53.4426 38.991 53.475 38.9406C53.8933 38.8655 54.3971 38.7481 54.9649 38.5888C54.9568 38.6137 52.7926 42.1592 53.0134 43.9192C53.0822 44.4561 53.0296 46.4173 54.9943 47.0123C57.6127 47.44 59.7037 45.4617 61.548 43.7016C61.548 43.7016 61.8623 43.4085 62.0401 43.2412C61.9951 43.4168 61.9365 43.651 61.9365 43.651C61.1699 46.2493 62.2032 46.7944 62.8496 46.9956C64.803 47.5491 67.1367 44.783 67.1443 44.783C67.0837 45.6543 66.9068 46.3752 67.8492 46.9535C68.7387 47.2639 69.6389 46.7908 70.323 46.3465C72.7877 44.6535 74.7731 42.0037 76.3767 39.7133H75.3537C75.3417 39.7133 72.8294 43.2621 71.1982 44.0335C71.1958 44.0335 70.8988 44.182 70.7277 44.0645C70.516 43.8884 70.5995 43.5223 70.7301 43.2631C70.7383 43.2461 77.0286 32.6127 77.0286 32.6127H74.0586C74.0586 32.6127 73.7342 33.1243 73.7078 33.1579C73.6878 33.1412 73.6402 33.0532 73.6072 33.0111C71.7671 30.5302 67.6001 34.3462 64.4628 38.7712C63.255 40.4728 61.7173 42.3887 60.1228 43.7718C60.1228 43.7718 57.7606 45.8822 56.7513 44.3659C56.3824 43.7288 56.4959 42.7974 56.704 42.1858C57.8791 38.9254 59.904 35.9666 62.2082 34.1809C62.8587 33.6867 63.5657 33.5438 63.9166 33.7534C64.2509 33.9465 64.3048 34.4239 64.0933 34.7508C63.5566 34.7341 63.1267 34.893 62.7772 35.2451C62.0886 35.9492 61.8494 36.6282 62.0683 37.2653C63.1319 38.7404 65.2528 35.8236 65.1502 34.0467C65.1136 33.4096 64.7648 32.8063 64.2444 32.5126C63.4688 32.0602 62.2856 32.1774 61.5198 32.538C60.4948 32.9151 58.8721 34.2308 57.9249 35.2536C56.7325 36.5361 54.6875 37.9608 54.0479 37.8013C54.2574 37.2562 55.985 33.8113 54.1678 32.521ZM69.0961 51.1697C65.5983 48.9736 60.8513 48.5882 53.1958 50.6583C45.0347 52.5276 42.3133 53.7259 38.7399 51.3204C37.367 50.1387 36.8748 48.2361 37.2424 45.4957C38.0949 41.0281 40.3985 36.7286 44.4908 31.9598C46.7749 29.479 48.8935 27.3499 51.6912 26.4951C53.8354 25.9588 53.635 27.6012 53.3755 27.8361C53.1017 27.8361 52.6418 27.8781 52.2864 28.1042C51.998 28.3222 51.2061 29.0263 51.1636 29.9734C51.1022 31.4233 52.6417 31.1215 53.3058 30.3255C54.0215 29.4284 55.0792 27.7105 54.2472 26.1095C53.8984 25.5396 53.2959 25.1458 52.5477 25.0116C49.986 24.869 47.6 26.0592 45.398 27.3751C40.5838 30.6354 36.7316 35.1531 34.5522 40.0983C33.2955 43.082 32.159 47.3559 33.8626 50.8347C35.1804 53.2485 37.9163 54.5306 41.1806 54.2625C43.4699 54.028 46.2378 53.3069 48.1 52.8714C49.9618 52.4353 59.492 49.2423 62.6236 54.7996C62.6236 54.7996 63.6649 52.8294 66.2672 52.7874C68.4066 52.595 71.4932 53.3911 73.7407 55C72.9919 53.9024 70.8689 52.2848 69.0978 51.1698L69.0961 51.1697Z"></path>
</svg>
