<svg xmlns="http://www.w3.org/2000/svg" fill="none" viewBox="0 0 160 80" height="80" width="160">
<path fill="black" d="M59.6463 64.5519V61.2558C59.6463 59.9923 58.8772 59.1682 57.5588 59.1682C56.8996 59.1682 56.1854 59.388 55.691 60.1021C55.3064 59.4978 54.7571 59.1682 53.933 59.1682C53.3837 59.1682 52.8343 59.333 52.3948 59.9373V59.2781H51.2412V64.5519H52.3948V61.6403C52.3948 60.7064 52.8893 60.2669 53.6584 60.2669C54.4275 60.2669 54.812 60.7614 54.812 61.6403V64.5519H55.9657V61.6403C55.9657 60.7064 56.515 60.2669 57.2292 60.2669C57.9983 60.2669 58.3828 60.7614 58.3828 61.6403V64.5519H59.6463ZM76.7313 59.2781H74.8635V57.685H73.7099V59.2781H72.6661V60.3219H73.7099V62.739C73.7099 63.9476 74.2043 64.6618 75.5227 64.6618C76.0171 64.6618 76.5665 64.497 76.9511 64.2772L76.6214 63.2884C76.2918 63.5081 75.9073 63.5631 75.6326 63.5631C75.0832 63.5631 74.8635 63.2335 74.8635 62.6841V60.3219H76.7313V59.2781ZM86.5098 59.1682C85.8506 59.1682 85.4111 59.4978 85.1365 59.9373V59.2781H83.9828V64.5519H85.1365V61.5854C85.1365 60.7064 85.521 60.212 86.2352 60.212C86.4549 60.212 86.7296 60.2669 86.9493 60.3219L87.279 59.2232C87.0592 59.1682 86.7296 59.1682 86.5098 59.1682ZM71.7322 59.7176C71.1828 59.333 70.4137 59.1682 69.5897 59.1682C68.2712 59.1682 67.3923 59.8275 67.3923 60.8712C67.3923 61.7502 68.0515 62.2446 69.2051 62.4094L69.7545 62.4644C70.3588 62.5742 70.6884 62.739 70.6884 63.0137C70.6884 63.3983 70.2489 63.6729 69.4798 63.6729C68.7107 63.6729 68.1064 63.3983 67.7219 63.1236L67.1725 64.0026C67.7768 64.442 68.6009 64.6618 69.4249 64.6618C70.9631 64.6618 71.842 63.9476 71.842 62.9588C71.842 62.0249 71.1279 61.5305 70.0292 61.3656L69.4798 61.3107C68.9854 61.2558 68.6009 61.1459 68.6009 60.8163C68.6009 60.4317 68.9854 60.212 69.5897 60.212C70.2489 60.212 70.9081 60.4867 71.2378 60.6515L71.7322 59.7176ZM102.386 59.1682C101.727 59.1682 101.288 59.4978 101.013 59.9373V59.2781H99.8592V64.5519H101.013V61.5854C101.013 60.7064 101.397 60.212 102.112 60.212C102.331 60.212 102.606 60.2669 102.826 60.3219L103.155 59.2232C102.936 59.1682 102.606 59.1682 102.386 59.1682ZM87.6635 61.915C87.6635 63.5081 88.7622 64.6618 90.4652 64.6618C91.2343 64.6618 91.7837 64.497 92.333 64.0575L91.7837 63.1236C91.3442 63.4532 90.9047 63.618 90.4103 63.618C89.4764 63.618 88.8171 62.9588 88.8171 61.915C88.8171 60.9262 89.4764 60.2669 90.4103 60.212C90.9047 60.212 91.3442 60.3768 91.7837 60.7064L92.333 59.7725C91.7837 59.333 91.2343 59.1682 90.4652 59.1682C88.7622 59.1682 87.6635 60.3219 87.6635 61.915ZM98.321 59.2781H97.1674V59.9373C96.7828 59.4429 96.2335 59.1682 95.5193 59.1682C94.036 59.1682 92.8824 60.3219 92.8824 61.915C92.8824 63.5081 94.036 64.6618 95.5193 64.6618C96.2884 64.6618 96.8378 64.3871 97.1674 63.8927V64.5519H98.321V59.2781ZM94.091 61.915C94.091 60.9811 94.6953 60.212 95.6841 60.212C96.618 60.212 97.2772 60.9262 97.2772 61.915C97.2772 62.8489 96.618 63.618 95.6841 63.618C94.6953 63.5631 94.091 62.8489 94.091 61.915ZM80.3021 59.1682C78.7639 59.1682 77.6652 60.2669 77.6652 61.915C77.6652 63.5631 78.7639 64.6618 80.3571 64.6618C81.1262 64.6618 81.8953 64.442 82.4996 63.9476L81.9502 63.1236C81.5107 63.4532 80.9614 63.6729 80.412 63.6729C79.6978 63.6729 78.9837 63.3433 78.8189 62.4094H82.7193C82.7193 62.2446 82.7193 62.1347 82.7193 61.9699C82.7742 60.2669 81.7854 59.1682 80.3021 59.1682ZM80.3021 60.1571C81.0163 60.1571 81.5107 60.5965 81.6206 61.4206H78.8738C78.9837 60.7064 79.4781 60.1571 80.3021 60.1571ZM108.924 57.1906H107.77V59.9373C107.385 59.4429 106.836 59.1682 106.122 59.1682C104.639 59.1682 103.485 60.3219 103.485 61.915C103.485 63.5081 104.639 64.6618 106.122 64.6618C106.891 64.6618 107.44 64.3871 107.77 63.8927V64.5519H108.924V57.1906ZM104.694 61.915C104.694 60.9811 105.298 60.212 106.287 60.212C107.221 60.212 107.88 60.9262 107.88 61.915C107.88 62.8489 107.221 63.618 106.287 63.618C105.298 63.5631 104.694 62.8489 104.694 61.915ZM66.1287 59.2781H64.9751V59.9373C64.5905 59.4429 64.0412 59.1682 63.327 59.1682C61.8438 59.1682 60.6901 60.3219 60.6901 61.915C60.6901 63.5081 61.8438 64.6618 63.327 64.6618C64.0961 64.6618 64.6455 64.3871 64.9751 63.8927V64.5519H66.1287V59.2781ZM61.8438 61.915C61.8438 60.9811 62.448 60.212 63.4369 60.212C64.3708 60.212 65.03 60.9262 65.03 61.915C65.03 62.8489 64.3708 63.618 63.4369 63.618C62.448 63.5631 61.8438 62.8489 61.8438 61.915Z"></path>
<path fill="#7A7A7A" d="M88.6524 19.23H71.3477V50.3236H88.6524V19.23Z"></path>
<path fill="#404040" d="M72.4464 34.7768C72.4464 28.4592 75.4129 22.8558 79.9725 19.23C76.6214 16.5931 72.3914 15 67.7768 15C56.8446 15 48 23.8446 48 34.7768C48 45.709 56.8446 54.5536 67.7768 54.5536C72.3914 54.5536 76.6214 52.9605 79.9725 50.3236C75.4129 46.7528 72.4464 41.0944 72.4464 34.7768Z"></path>
<path fill="#B8B8B8" d="M112 34.7768C112 45.709 103.155 54.5536 92.2232 54.5536C87.6086 54.5536 83.3785 52.9605 80.0275 50.3236C84.6421 46.6979 87.5537 41.0944 87.5537 34.7768C87.5537 28.4592 84.5871 22.8558 80.0275 19.23C83.3785 16.5931 87.6086 15 92.2232 15C103.155 15 112 23.8996 112 34.7768Z"></path>
</svg>
